<svg xmlns="http://www.w3.org/2000/svg" viewBox="0 0 800 1000">
<defs>
<filter id="veta0" filterUnits="userSpaceOnUse" x="0" y="0" width="800" height="214"><feTurbulence type="fractalNoise" baseFrequency=".0028 .075" numOctaves="4" seed="3"/><feColorMatrix type="matrix" values="0 0 0 0 .34  0 0 0 0 .2  0 0 0 0 .09  -2.6 0 0 0 1.42"/></filter><filter id="veta1" filterUnits="userSpaceOnUse" x="0" y="214" width="800" height="272"><feTurbulence type="fractalNoise" baseFrequency=".0028 .075" numOctaves="4" seed="8"/><feColorMatrix type="matrix" values="0 0 0 0 .34  0 0 0 0 .2  0 0 0 0 .09  -2.6 0 0 0 1.42"/></filter><filter id="veta2" filterUnits="userSpaceOnUse" x="0" y="486" width="800" height="256"><feTurbulence type="fractalNoise" baseFrequency=".0028 .075" numOctaves="4" seed="13"/><feColorMatrix type="matrix" values="0 0 0 0 .34  0 0 0 0 .2  0 0 0 0 .09  -2.6 0 0 0 1.42"/></filter><filter id="veta3" filterUnits="userSpaceOnUse" x="0" y="742" width="800" height="258"><feTurbulence type="fractalNoise" baseFrequency=".0028 .075" numOctaves="4" seed="21"/><feColorMatrix type="matrix" values="0 0 0 0 .34  0 0 0 0 .2  0 0 0 0 .09  -2.6 0 0 0 1.42"/></filter><radialGradient id="bola-rojo" cx=".36" cy=".32" r=".7"><stop offset="0" stop-color="#fff" stop-opacity=".95"/><stop offset=".2" stop-color="#d0604a"/><stop offset="1" stop-color="#7a2a1b"/></radialGradient><radialGradient id="bola-mostaza" cx=".36" cy=".32" r=".7"><stop offset="0" stop-color="#fff" stop-opacity=".95"/><stop offset=".2" stop-color="#ecbc52"/><stop offset="1" stop-color="#94681c"/></radialGradient><radialGradient id="bola-azul" cx=".36" cy=".32" r=".7"><stop offset="0" stop-color="#fff" stop-opacity=".95"/><stop offset=".2" stop-color="#5a86c0"/><stop offset="1" stop-color="#1f3c66"/></radialGradient><radialGradient id="bola-crudo" cx=".36" cy=".32" r=".7"><stop offset="0" stop-color="#fff" stop-opacity=".95"/><stop offset=".2" stop-color="#f7f1e4"/><stop offset="1" stop-color="#a3957a"/></radialGradient>
<filter id="poros" filterUnits="userSpaceOnUse" x="0" y="0" width="800" height="1000">
  <feTurbulence type="fractalNoise" baseFrequency=".01 .6" numOctaves="2" seed="5"/>
  <feColorMatrix type="matrix" values="0 0 0 0 .3  0 0 0 0 .17  0 0 0 0 .07  -2.2 0 0 0 1.12"/>
</filter>
<filter id="grano" filterUnits="userSpaceOnUse" x="0" y="0" width="800" height="1000">
  <feTurbulence type="fractalNoise" baseFrequency=".9" numOctaves="2" seed="11"/>
  <feColorMatrix type="matrix" values="1 0 0 0 0  1 0 0 0 0  1 0 0 0 0  0 0 0 0 .07"/>
</filter>
<filter id="sombra" x="-20%" y="-15%" width="145%" height="140%" color-interpolation-filters="sRGB">
  <feGaussianBlur in="SourceAlpha" stdDeviation="16" result="b1"/>
  <feOffset in="b1" dx="9" dy="16" result="o1"/>
  <feFlood flood-color="#2e1a0a" flood-opacity=".42"/>
  <feComposite in2="o1" operator="in" result="s1"/>
  <feGaussianBlur in="SourceAlpha" stdDeviation="2.5" result="b2"/>
  <feOffset in="b2" dx="2" dy="3" result="o2"/>
  <feFlood flood-color="#1e1006" flood-opacity=".5"/>
  <feComposite in2="o2" operator="in" result="s2"/>
  <feMerge><feMergeNode in="s1"/><feMergeNode in="s2"/><feMergeNode in="SourceGraphic"/></feMerge>
</filter>
<filter id="sombra-chica" filterUnits="userSpaceOnUse" x="0" y="0" width="800" height="1000" color-interpolation-filters="sRGB">
  <feGaussianBlur in="SourceAlpha" stdDeviation="3" result="b"/>
  <feOffset in="b" dx="4" dy="6" result="o"/>
  <feFlood flood-color="#1e1006" flood-opacity=".42"/>
  <feComposite in2="o" operator="in"/>
  <feMerge><feMergeNode/><feMergeNode in="SourceGraphic"/></feMerge>
</filter>
<filter id="difuso" filterUnits="userSpaceOnUse" x="0" y="0" width="800" height="1000"><feGaussianBlur stdDeviation="7"/></filter>
<filter id="difuso-fino" filterUnits="userSpaceOnUse" x="0" y="0" width="800" height="1000"><feGaussianBlur stdDeviation="2.2"/></filter>
<filter id="tiza" filterUnits="userSpaceOnUse" x="0" y="0" width="800" height="1000">
  <feTurbulence type="fractalNoise" baseFrequency=".6" numOctaves="2" seed="9" result="r"/>
  <feDisplacementMap in="SourceGraphic" in2="r" scale="5" xChannelSelector="R" yChannelSelector="G"/>
</filter>
<filter id="tela-denim" x="-4%" y="-4%" width="108%" height="108%" color-interpolation-filters="sRGB">
  <feTurbulence type="fractalNoise" baseFrequency=".9 .03" numOctaves="3" seed="4" result="r"/>
  <feColorMatrix in="r" type="matrix" values="0 0 0 0 .93  0 0 0 0 .96  0 0 0 0 1  .55 0 0 0 -.22" result="m"/>
  <feComposite in="m" in2="SourceAlpha" operator="in" result="textura"/>
  <feGaussianBlur in="SourceAlpha" stdDeviation="9" result="alto"/>
  <feDiffuseLighting in="alto" surfaceScale="4.5" diffuseConstant="1.33" lighting-color="#fff" result="luz">
    <feDistantLight azimuth="225" elevation="48"/>
  </feDiffuseLighting>
  <feComposite in="luz" in2="SourceAlpha" operator="in" result="luz2"/>
  <feMerge result="con"><feMergeNode in="SourceGraphic"/><feMergeNode in="textura"/></feMerge>
  <feBlend in="con" in2="luz2" mode="multiply" result="final"/>
  <feComposite in="final" in2="SourceAlpha" operator="in"/>
</filter>
<filter id="tela-denim-grande" x="-4%" y="-4%" width="108%" height="108%" color-interpolation-filters="sRGB">
  <feTurbulence type="fractalNoise" baseFrequency=".5 .016" numOctaves="3" seed="6" result="r"/>
  <feColorMatrix in="r" type="matrix" values="0 0 0 0 .93  0 0 0 0 .96  0 0 0 0 1  .6 0 0 0 -.24" result="m"/>
  <feComposite in="m" in2="SourceAlpha" operator="in" result="textura"/>
  <feGaussianBlur in="SourceAlpha" stdDeviation="12" result="alto"/>
  <feDiffuseLighting in="alto" surfaceScale="5" diffuseConstant="1.33" lighting-color="#fff" result="luz">
    <feDistantLight azimuth="225" elevation="48"/>
  </feDiffuseLighting>
  <feComposite in="luz" in2="SourceAlpha" operator="in" result="luz2"/>
  <feMerge result="con"><feMergeNode in="SourceGraphic"/><feMergeNode in="textura"/></feMerge>
  <feBlend in="con" in2="luz2" mode="multiply" result="final"/>
  <feComposite in="final" in2="SourceAlpha" operator="in"/>
</filter>
<filter id="tela-lona" x="-4%" y="-4%" width="108%" height="108%" color-interpolation-filters="sRGB">
  <feTurbulence type="fractalNoise" baseFrequency=".09" numOctaves="3" seed="7" result="r"/>
  <feColorMatrix in="r" type="matrix" values="0 0 0 0 .25  0 0 0 0 .15  0 0 0 0 .04  -.45 0 0 0 .26" result="m"/>
  <feComposite in="m" in2="SourceAlpha" operator="in" result="textura"/>
  <feGaussianBlur in="SourceAlpha" stdDeviation="9" result="alto"/>
  <feDiffuseLighting in="alto" surfaceScale="4.5" diffuseConstant="1.33" lighting-color="#fff" result="luz">
    <feDistantLight azimuth="225" elevation="48"/>
  </feDiffuseLighting>
  <feComposite in="luz" in2="SourceAlpha" operator="in" result="luz2"/>
  <feMerge result="con"><feMergeNode in="SourceGraphic"/><feMergeNode in="textura"/></feMerge>
  <feBlend in="con" in2="luz2" mode="multiply" result="final"/>
  <feComposite in="final" in2="SourceAlpha" operator="in"/>
</filter>
<filter id="tela-lino" x="-4%" y="-4%" width="108%" height="108%" color-interpolation-filters="sRGB">
  <feTurbulence type="fractalNoise" baseFrequency=".03 .7" numOctaves="3" seed="2" result="r"/>
  <feColorMatrix in="r" type="matrix" values="0 0 0 0 1  0 0 0 0 .95  0 0 0 0 .9  .5 0 0 0 -.2" result="m"/>
  <feComposite in="m" in2="SourceAlpha" operator="in" result="textura"/>
  <feGaussianBlur in="SourceAlpha" stdDeviation="8" result="alto"/>
  <feDiffuseLighting in="alto" surfaceScale="4" diffuseConstant="1.33" lighting-color="#fff" result="luz">
    <feDistantLight azimuth="225" elevation="48"/>
  </feDiffuseLighting>
  <feComposite in="luz" in2="SourceAlpha" operator="in" result="luz2"/>
  <feMerge result="con"><feMergeNode in="SourceGraphic"/><feMergeNode in="textura"/></feMerge>
  <feBlend in="con" in2="luz2" mode="multiply" result="final"/>
  <feComposite in="final" in2="SourceAlpha" operator="in"/>
</filter>
<filter id="tela-pana" x="-4%" y="-4%" width="108%" height="108%" color-interpolation-filters="sRGB">
  <feTurbulence type="fractalNoise" baseFrequency=".03" numOctaves="3" seed="12" result="r"/>
  <feColorMatrix in="r" type="matrix" values="0 0 0 0 .1  0 0 0 0 .06  0 0 0 0 .02  -1 0 0 0 .5" result="m"/>
  <feComposite in="m" in2="SourceAlpha" operator="in" result="textura"/>
  <feGaussianBlur in="SourceAlpha" stdDeviation="5" result="alto"/>
  <feDiffuseLighting in="alto" surfaceScale="3" diffuseConstant="1.33" lighting-color="#fff" result="luz">
    <feDistantLight azimuth="225" elevation="48"/>
  </feDiffuseLighting>
  <feComposite in="luz" in2="SourceAlpha" operator="in" result="luz2"/>
  <feMerge result="con"><feMergeNode in="SourceGraphic"/><feMergeNode in="textura"/></feMerge>
  <feBlend in="con" in2="luz2" mode="multiply" result="final"/>
  <feComposite in="final" in2="SourceAlpha" operator="in"/>
</filter>
<radialGradient id="luz" cx=".2" cy=".1" r=".95">
  <stop offset="0" stop-color="#fff4dc" stop-opacity=".32"/><stop offset=".65" stop-color="#fff4dc" stop-opacity="0"/>
</radialGradient>
<radialGradient id="vineta" cx=".5" cy=".5" r=".74">
  <stop offset=".58" stop-color="#26150a" stop-opacity="0"/><stop offset="1" stop-color="#26150a" stop-opacity=".46"/>
</radialGradient>
<radialGradient id="desteñido"><stop offset="0" stop-color="#e8f0fb" stop-opacity=".3"/><stop offset="1" stop-color="#e8f0fb" stop-opacity="0"/></radialGradient>
<radialGradient id="metal" cx=".35" cy=".3" r=".8"><stop offset="0" stop-color="#fbfbfb"/><stop offset=".45" stop-color="#b7bbc0"/><stop offset="1" stop-color="#5f6368"/></radialGradient>
<radialGradient id="nacar" cx=".38" cy=".32" r=".75"><stop offset="0" stop-color="#fffdf8"/><stop offset=".6" stop-color="#ece3d2"/><stop offset="1" stop-color="#bfb197"/></radialGradient>
<radialGradient id="cobre" cx=".35" cy=".3" r=".8"><stop offset="0" stop-color="#f3c48a"/><stop offset=".5" stop-color="#b8743a"/><stop offset="1" stop-color="#6b3c17"/></radialGradient>
<radialGradient id="tomate" cx=".4" cy=".35" r=".7"><stop offset="0" stop-color="#ec8a6c"/><stop offset=".45" stop-color="#c4462f"/><stop offset="1" stop-color="#7a2316"/></radialGradient>
<radialGradient id="cinta-radial"><stop offset=".3" stop-color="#f6d36a"/><stop offset="1" stop-color="#d8a73a"/></radialGradient>
<linearGradient id="metal-lineal"><stop offset="0" stop-color="#7d8288"/><stop offset=".35" stop-color="#eef0f2"/><stop offset=".6" stop-color="#b3b8be"/><stop offset="1" stop-color="#6a6f75"/></linearGradient>
<linearGradient id="acero" x1="0" y1="0" x2="0" y2="1"><stop offset="0" stop-color="#f1f3f5"/><stop offset=".5" stop-color="#b4b9bf"/><stop offset="1" stop-color="#80868d"/></linearGradient>
<linearGradient id="acero-osc" x1="0" y1="0" x2="0" y2="1"><stop offset="0" stop-color="#a9aeb4"/><stop offset="1" stop-color="#5c6167"/></linearGradient>
<linearGradient id="laton" x1="0" y1="0" x2="0" y2="1"><stop offset="0" stop-color="#f4dc98"/><stop offset=".5" stop-color="#c9a04a"/><stop offset="1" stop-color="#7d5d1e"/></linearGradient>
<linearGradient id="cinta-amarilla" x1="0" y1="0" x2="0" y2="1"><stop offset="0" stop-color="#fbe08a"/><stop offset=".5" stop-color="#f2cc5c"/><stop offset="1" stop-color="#c99a2e"/></linearGradient>
<linearGradient id="cilindro" x1="0" y1="0" x2="0" y2="1"><stop offset="0" stop-color="#fff" stop-opacity=".45"/><stop offset=".35" stop-color="#fff" stop-opacity="0"/><stop offset=".7" stop-color="#000" stop-opacity=".1"/><stop offset="1" stop-color="#000" stop-opacity=".5"/></linearGradient>
<linearGradient id="madera-tapa" x1="0" y1="0" x2="0" y2="1"><stop offset="0" stop-color="#e9c891"/><stop offset=".5" stop-color="#c39158"/><stop offset="1" stop-color="#7d5428"/></linearGradient>
<linearGradient id="plastico-azul" x1="0" y1="0" x2="0" y2="1"><stop offset="0" stop-color="#8fb3e6"/><stop offset=".45" stop-color="#3d6aa3"/><stop offset="1" stop-color="#1c3558"/></linearGradient>
<pattern id="sarga" width="5" height="5" patternUnits="userSpaceOnUse" patternTransform="rotate(28)"><rect width="2" height="5" fill="#081426" fill-opacity=".2"/></pattern>
<pattern id="sarga-grande" width="9" height="9" patternUnits="userSpaceOnUse" patternTransform="rotate(28)"><rect width="3.6" height="9" fill="#081426" fill-opacity=".2"/><rect x="5" width="1.4" height="9" fill="#fff" fill-opacity=".1"/></pattern>
<pattern id="lona" width="3" height="3" patternUnits="userSpaceOnUse"><path d="M0 .5h3M.5 0v3" stroke="#2e1d06" stroke-opacity=".12" stroke-width="1"/></pattern>
<pattern id="lino-trama" width="4" height="4" patternUnits="userSpaceOnUse"><path d="M0 1h4M1 0v4" stroke="#3a1a0e" stroke-opacity=".1" stroke-width="1.2"/></pattern>
<pattern id="pana-izq" width="7" height="7" patternUnits="userSpaceOnUse" patternTransform="rotate(62)"><rect width="7" height="7" fill="#3a2212" fill-opacity=".35"/><rect x="1.5" width="3.5" height="7" fill="#c49a72" fill-opacity=".25"/></pattern>
<pattern id="pana-der" width="7" height="7" patternUnits="userSpaceOnUse" patternTransform="rotate(-62)"><rect width="7" height="7" fill="#3a2212" fill-opacity=".35"/><rect x="1.5" width="3.5" height="7" fill="#c49a72" fill-opacity=".25"/></pattern>
<pattern id="franela" width="64" height="64" patternUnits="userSpaceOnUse" patternTransform="rotate(6)">
  <rect width="64" height="64" fill="#a9412b"/>
  <rect y="22" width="64" height="18" fill="#4a160c" fill-opacity=".45"/><rect x="22" width="18" height="64" fill="#4a160c" fill-opacity=".45"/>
  <rect y="29" width="64" height="3" fill="#f1e2c4" fill-opacity=".6"/><rect x="29" width="3" height="64" fill="#f1e2c4" fill-opacity=".6"/>
  <rect y="6" width="64" height="2" fill="#2b4a7a" fill-opacity=".7"/><rect x="6" width="2" height="64" fill="#2b4a7a" fill-opacity=".7"/>
</pattern>
<pattern id="dientes-v" x="394.5" width="11" height="6" patternUnits="userSpaceOnUse">
  <rect width="7" height="3" rx=".8" fill="#d8b562"/><rect y="2.2" width="7" height=".8" fill="#7d5d1e"/>
  <rect x="4" y="3" width="7" height="3" rx=".8" fill="#c9a04a"/><rect x="4" y="5.2" width="7" height=".8" fill="#6b4e17"/>
</pattern>
<pattern id="dientes-h" y="-5.5" width="6" height="11" patternUnits="userSpaceOnUse">
  <rect width="3" height="7" rx=".8" fill="#d8b562"/><rect x="2.2" width=".8" height="7" fill="#7d5d1e"/>
  <rect x="3" y="4" width="3" height="7" rx=".8" fill="#c9a04a"/><rect x="5.2" y="4" width=".8" height="7" fill="#6b4e17"/>
</pattern>
<pattern id="vueltas" width="3" height="10" patternUnits="userSpaceOnUse"><rect width="1" height="10" fill="#000" fill-opacity=".18"/></pattern>
<pattern id="hoyitos" width="7" height="7" patternUnits="userSpaceOnUse"><circle cx="3.5" cy="3.5" r="1.4" fill="#3f4348" fill-opacity=".5"/></pattern>
<linearGradient id="gastado" x1="0" y1="0" x2="0" y2="1"><stop offset="0" stop-color="#dfe8f5" stop-opacity="0"/><stop offset="1" stop-color="#dfe8f5" stop-opacity=".45"/></linearGradient></defs>
<rect width="800" height="1000" fill="#d2ab78"/><rect y="0" width="800" height="214" fill="#fff" fill-opacity="0.05"/><rect y="0" width="800" height="214" filter="url(#veta0)"/><rect y="214" width="800" height="272" fill="#3a210c" fill-opacity="0.04"/><rect y="214" width="800" height="272" filter="url(#veta1)"/><rect y="486" width="800" height="256" fill="#fff" fill-opacity="0.03"/><rect y="486" width="800" height="256" filter="url(#veta2)"/><rect y="742" width="800" height="258" fill="#3a210c" fill-opacity="0.02"/><rect y="742" width="800" height="258" filter="url(#veta3)"/><rect width="800" height="1000" filter="url(#poros)"/><path d="M0 213H800" stroke="#3e230c" stroke-opacity=".6" stroke-width="3"/><path d="M0 215.8H800" stroke="#fff" stroke-opacity=".2" stroke-width="1.2"/><path d="M0 485H800" stroke="#3e230c" stroke-opacity=".6" stroke-width="3"/><path d="M0 487.8H800" stroke="#fff" stroke-opacity=".2" stroke-width="1.2"/><path d="M0 741H800" stroke="#3e230c" stroke-opacity=".6" stroke-width="3"/><path d="M0 743.8H800" stroke="#fff" stroke-opacity=".2" stroke-width="1.2"/>
<defs><clipPath id="c-camisa"><path d="M330 150 Q400 168 470 150 L578 190 C618 200 640 236 646 286 L688 810 L612 826 L594 412 C590 480 570 560 566 620 C568 720 580 820 588 930 C556 950 470 972 400 974 C330 972 244 950 212 930 C220 820 232 720 234 620 C230 560 210 480 206 412 L188 826 L112 810 L154 286 C160 236 182 200 222 190 Z"/></clipPath></defs><g filter="url(#sombra)"><g filter="url(#tela-lino)"><path d="M330 150 Q400 168 470 150 L578 190 C618 200 640 236 646 286 L688 810 L612 826 L594 412 C590 480 570 560 566 620 C568 720 580 820 588 930 C556 950 470 972 400 974 C330 972 244 950 212 930 C220 820 232 720 234 620 C230 560 210 480 206 412 L188 826 L112 810 L154 286 C160 236 182 200 222 190 Z" fill="#bb6a4c"/><g clip-path="url(#c-camisa)"><rect width="800" height="1000" fill="url(#lino-trama)"/></g><g clip-path="url(#c-camisa)"><g filter="url(#difuso)"><path d="M441.8 745.1 C444.2 754.8 451.6 784.3 456.5 803.3 C461.5 822.4 468.8 850.1 471.3 859.5" fill="none" stroke="#3a1006" stroke-opacity="0.1543507842425422" stroke-width="8.611624983327085" stroke-linecap="round"/><path d="M550.7 689.4 C554.1 695 564.1 706.4 570.8 722.8 C577.5 739.1 587.5 776.7 590.8 787.5" fill="none" stroke="#3a1006" stroke-opacity="0.23156412888538958" stroke-width="5.232864163099151" stroke-linecap="round"/><path d="M234.5 430 C232.6 439.6 227.1 468.2 223.4 487.5 C219.8 506.9 214.2 536.2 212.4 546" fill="none" stroke="#ffe3d6" stroke-opacity="0.26957204871468066" stroke-width="4.798021061790191" stroke-linecap="round"/><path d="M439.9 376 C435.8 385.4 423.3 418.4 415 432.2 C406.7 445.9 394.3 454.2 390.1 458.6" fill="none" stroke="#3a1006" stroke-opacity="0.2973631663238888" stroke-width="5.0774058461236615" stroke-linecap="round"/><path d="M328.4 876.9 C328.7 885.3 329.7 913.5 330.3 927.2 C331 940.9 332 953.8 332.3 959.2" fill="none" stroke="#3a1006" stroke-opacity="0.2535962911660362" stroke-width="8.704880005439996" stroke-linecap="round"/><path d="M533.9 479.3 C532.7 485.1 529.2 501.1 526.9 514.3 C524.6 527.4 521.1 550.7 520 558" fill="none" stroke="#3a1006" stroke-opacity="0.19520386511541937" stroke-width="4.325698566878382" stroke-linecap="round"/><path d="M231.2 706.8 C229.8 713.3 225.7 726.2 223 746.1 C220.3 765.9 216.3 812.6 214.9 825.9" fill="none" stroke="#3a1006" stroke-opacity="0.1973689658769666" stroke-width="6.403725933150195" stroke-linecap="round"/><path d="M469.6 334.2 C473.5 339.3 485.4 345.7 493.3 364.9 C501.3 384.1 513.1 435.1 517.1 449.2" fill="none" stroke="#3a1006" stroke-opacity="0.15271013030677952" stroke-width="8.224404446940648" stroke-linecap="round"/><path d="M354.5 647.1 C350.4 652.3 338.1 665 330 678.5 C321.8 692 309.5 719.7 305.4 728" fill="none" stroke="#3a1006" stroke-opacity="0.17947825057695121" stroke-width="8.775899497955832" stroke-linecap="round"/><path d="M546.1 865.2 C544.8 872 540.9 889 538.3 905.9 C535.7 922.8 531.8 956.6 530.5 966.7" fill="none" stroke="#3a1006" stroke-opacity="0.16620793035972492" stroke-width="7.878015073494977" stroke-linecap="round"/><path d="M501.1 815.8 C497.2 825.5 485.6 861.6 477.9 874.2 C470.2 886.8 458.6 888.4 454.7 891.3" fill="none" stroke="#3a1006" stroke-opacity="0.24162413071389363" stroke-width="5.703702677521111" stroke-linecap="round"/><path d="M345.6 854.5 C346 861.1 347.1 879.1 347.8 893.9 C348.6 908.7 349.7 935.3 350.1 943.5" fill="none" stroke="#ffe3d6" stroke-opacity="0.16172943483308602" stroke-width="4.887388877524943" stroke-linecap="round"/><path d="M464.3 898 C461.5 903.3 453 908 447.4 929.5 C441.8 951 433.3 1010.9 430.5 1027.2" fill="none" stroke="#ffe3d6" stroke-opacity="0.21088320318441073" stroke-width="6.667653706804172" stroke-linecap="round"/><path d="M431.9 795.8 C431.6 802.9 430.5 826.2 429.7 838.4 C429 850.7 427.9 864 427.5 869.1" fill="none" stroke="#3a1006" stroke-opacity="0.15490818299539136" stroke-width="8.580346742209954" stroke-linecap="round"/><path d="M515.1 378.3 C517 388.1 522.8 418.9 526.6 436.8 C530.5 454.8 536.3 477.9 538.2 486.2" fill="none" stroke="#ffe3d6" stroke-opacity="0.16599459145458884" stroke-width="7.940047748901785" stroke-linecap="round"/><path d="M280.7 806.8 C279 814.1 273.9 828.8 270.5 850.4 C267.1 872.1 261.9 922.4 260.2 936.8" fill="none" stroke="#3a1006" stroke-opacity="0.29640113546199465" stroke-width="8.261263354468714" stroke-linecap="round"/><path d="M130 360 C131.7 393.3 136 498.3 140 560 C144 621.7 151.7 701.7 154 730" fill="none" stroke="#3a1006" stroke-opacity="0.22" stroke-width="12" stroke-linecap="round"/><path d="M110 520 C115 523.3 130 538.7 140 540 C150 541.3 165 530 170 528" fill="none" stroke="#ffe3d6" stroke-opacity="0.35" stroke-width="5" stroke-linecap="round"/><path d="M670 360 C668.3 393.3 664 498.3 660 560 C656 621.7 648.3 701.7 646 730" fill="none" stroke="#3a1006" stroke-opacity="0.22" stroke-width="12" stroke-linecap="round"/><path d="M650 520 C655 523.3 670 538.7 680 540 C690 541.3 705 530 710 528" fill="none" stroke="#ffe3d6" stroke-opacity="0.35" stroke-width="5" stroke-linecap="round"/><path d="M260 560 C265 573.3 290 613.3 290 640 C290 666.7 265 706.7 260 720" fill="none" stroke="#3a1006" stroke-opacity="0.3" stroke-width="7" stroke-linecap="round"/><path d="M540 560 C535 573.3 510 613.3 510 640 C510 666.7 535 706.7 540 720" fill="none" stroke="#3a1006" stroke-opacity="0.3" stroke-width="7" stroke-linecap="round"/></g></g><path d="M330 150 C321 153.3 294 163.3 276 170 C258 176.7 231 186.7 222 190" fill="none" stroke="#3a1006" stroke-opacity="0.10" stroke-width="6"/><path d="M330 150 C321 153.3 294 163.3 276 170 C258 176.7 231 186.7 222 190" fill="none" stroke="#3a1006" stroke-opacity="0.27" stroke-width="1.8"/><path d="M330 150 C321 153.3 294 163.3 276 170 C258 176.7 231 186.7 222 190" fill="none" stroke="#fff" stroke-opacity="0.16" stroke-width="1.2" transform="translate(-1.6 -1.4)"/><path d="M222 190 C224.3 205 235.7 251.7 236 280 C236.3 308.3 229.2 338 224 360 C218.8 382 208.2 403.3 205 412" fill="none" stroke="#3a1006" stroke-opacity="0.12" stroke-width="6"/><path d="M222 190 C224.3 205 235.7 251.7 236 280 C236.3 308.3 229.2 338 224 360 C218.8 382 208.2 403.3 205 412" fill="none" stroke="#3a1006" stroke-opacity="0.31" stroke-width="1.8"/><path d="M222 190 C224.3 205 235.7 251.7 236 280 C236.3 308.3 229.2 338 224 360 C218.8 382 208.2 403.3 205 412" fill="none" stroke="#fff" stroke-opacity="0.18" stroke-width="1.2" transform="translate(-1.6 -1.4)"/><path d="M216.1 190.9 C218.4 205.8 229.7 252.1 230 280.1 C230.3 308 223.3 337 218.2 358.6 C213.1 380.3 202.5 401.4 199.4 409.9" fill="none" stroke="#000" stroke-opacity=".32" stroke-width="1.7" stroke-dasharray="6 3.4" stroke-linecap="round" transform="translate(.8 1)"/><path d="M216.1 190.9 C218.4 205.8 229.7 252.1 230 280.1 C230.3 308 223.3 337 218.2 358.6 C213.1 380.3 202.5 401.4 199.4 409.9" fill="none" stroke="#d9937a" stroke-width="1.7" stroke-dasharray="6 3.4" stroke-linecap="round"/><path d="M117.3 744 C123.8 745 143.5 747.7 156.6 750 C169.8 752.3 189.4 756.7 196 758" fill="none" stroke="#3a1006" stroke-opacity="0.13" stroke-width="6"/><path d="M117.3 744 C123.8 745 143.5 747.7 156.6 750 C169.8 752.3 189.4 756.7 196 758" fill="none" stroke="#3a1006" stroke-opacity="0.34" stroke-width="1.8"/><path d="M117.3 744 C123.8 745 143.5 747.7 156.6 750 C169.8 752.3 189.4 756.7 196 758" fill="none" stroke="#fff" stroke-opacity="0.20" stroke-width="1.2" transform="translate(-1.6 -1.4)"/><path d="M118.2 738.1 C124.8 739.1 144.5 741.8 157.7 744.1 C170.9 746.4 190.6 750.8 197.2 752.1" fill="none" stroke="#000" stroke-opacity=".32" stroke-width="1.7" stroke-dasharray="6 3.4" stroke-linecap="round" transform="translate(.8 1)"/><path d="M118.2 738.1 C124.8 739.1 144.5 741.8 157.7 744.1 C170.9 746.4 190.6 750.8 197.2 752.1" fill="none" stroke="#d9937a" stroke-width="1.7" stroke-dasharray="6 3.4" stroke-linecap="round"/><circle cx="161.84503816793892" cy="782" r="6.5" fill="#2a1708" fill-opacity=".35"/><circle cx="160.64503816793894" cy="780" r="6.5" fill="url(#nacar)"/><circle cx="160.64503816793894" cy="780" r="4.1" fill="none" stroke="#b9ab92" stroke-opacity=".7" stroke-width="1"/><circle cx="158" cy="777.4" r="1.3" fill="#7d6e58"/><circle cx="163.2" cy="777.4" r="1.3" fill="#7d6e58"/><circle cx="158" cy="782.6" r="1.3" fill="#7d6e58"/><circle cx="163.2" cy="782.6" r="1.3" fill="#7d6e58"/><path d="M158 777.4L163.2 782.6M163.2 777.4L158 782.6" stroke="#e9dcc8" stroke-width="1.1"/><path d="M147.3 744 L143.3 660" fill="none" stroke="#3a1006" stroke-opacity="0.08" stroke-width="6"/><path d="M147.3 744 L143.3 660" fill="none" stroke="#3a1006" stroke-opacity="0.20" stroke-width="1.8"/><path d="M147.3 744 L143.3 660" fill="none" stroke="#fff" stroke-opacity="0.12" stroke-width="1.2" transform="translate(-1.6 -1.4)"/><path d="M470 150 C479 153.3 506 163.3 524 170 C542 176.7 569 186.7 578 190" fill="none" stroke="#3a1006" stroke-opacity="0.10" stroke-width="6"/><path d="M470 150 C479 153.3 506 163.3 524 170 C542 176.7 569 186.7 578 190" fill="none" stroke="#3a1006" stroke-opacity="0.27" stroke-width="1.8"/><path d="M470 150 C479 153.3 506 163.3 524 170 C542 176.7 569 186.7 578 190" fill="none" stroke="#fff" stroke-opacity="0.16" stroke-width="1.2" transform="translate(-1.6 -1.4)"/><path d="M578 190 C575.7 205 564.3 251.7 564 280 C563.7 308.3 570.8 338 576 360 C581.2 382 591.8 403.3 595 412" fill="none" stroke="#3a1006" stroke-opacity="0.12" stroke-width="6"/><path d="M578 190 C575.7 205 564.3 251.7 564 280 C563.7 308.3 570.8 338 576 360 C581.2 382 591.8 403.3 595 412" fill="none" stroke="#3a1006" stroke-opacity="0.31" stroke-width="1.8"/><path d="M578 190 C575.7 205 564.3 251.7 564 280 C563.7 308.3 570.8 338 576 360 C581.2 382 591.8 403.3 595 412" fill="none" stroke="#fff" stroke-opacity="0.18" stroke-width="1.2" transform="translate(-1.6 -1.4)"/><path d="M583.9 190.9 C581.6 205.8 570.3 252.1 570 280.1 C569.7 308 576.7 337 581.8 358.6 C586.9 380.3 597.5 401.4 600.6 409.9" fill="none" stroke="#000" stroke-opacity=".32" stroke-width="1.7" stroke-dasharray="6 3.4" stroke-linecap="round" transform="translate(.8 1)"/><path d="M583.9 190.9 C581.6 205.8 570.3 252.1 570 280.1 C569.7 308 576.7 337 581.8 358.6 C586.9 380.3 597.5 401.4 600.6 409.9" fill="none" stroke="#d9937a" stroke-width="1.7" stroke-dasharray="6 3.4" stroke-linecap="round"/><path d="M682.7 744 C676.2 745 656.5 747.7 643.4 750 C630.2 752.3 610.6 756.7 604 758" fill="none" stroke="#3a1006" stroke-opacity="0.13" stroke-width="6"/><path d="M682.7 744 C676.2 745 656.5 747.7 643.4 750 C630.2 752.3 610.6 756.7 604 758" fill="none" stroke="#3a1006" stroke-opacity="0.34" stroke-width="1.8"/><path d="M682.7 744 C676.2 745 656.5 747.7 643.4 750 C630.2 752.3 610.6 756.7 604 758" fill="none" stroke="#fff" stroke-opacity="0.20" stroke-width="1.2" transform="translate(-1.6 -1.4)"/><path d="M681.8 738.1 C675.2 739.1 655.5 741.8 642.3 744.1 C629.1 746.4 609.4 750.8 602.8 752.1" fill="none" stroke="#000" stroke-opacity=".32" stroke-width="1.7" stroke-dasharray="6 3.4" stroke-linecap="round" transform="translate(.8 1)"/><path d="M681.8 738.1 C675.2 739.1 655.5 741.8 642.3 744.1 C629.1 746.4 609.4 750.8 602.8 752.1" fill="none" stroke="#d9937a" stroke-width="1.7" stroke-dasharray="6 3.4" stroke-linecap="round"/><circle cx="640.554961832061" cy="782" r="6.5" fill="#2a1708" fill-opacity=".35"/><circle cx="639.354961832061" cy="780" r="6.5" fill="url(#nacar)"/><circle cx="639.354961832061" cy="780" r="4.1" fill="none" stroke="#b9ab92" stroke-opacity=".7" stroke-width="1"/><circle cx="636.8" cy="777.4" r="1.3" fill="#7d6e58"/><circle cx="642" cy="777.4" r="1.3" fill="#7d6e58"/><circle cx="636.8" cy="782.6" r="1.3" fill="#7d6e58"/><circle cx="642" cy="782.6" r="1.3" fill="#7d6e58"/><path d="M636.8 777.4L642 782.6M642 777.4L636.8 782.6" stroke="#e9dcc8" stroke-width="1.1"/><path d="M652.7 744 L656.7 660" fill="none" stroke="#3a1006" stroke-opacity="0.08" stroke-width="6"/><path d="M652.7 744 L656.7 660" fill="none" stroke="#3a1006" stroke-opacity="0.20" stroke-width="1.8"/><path d="M652.7 744 L656.7 660" fill="none" stroke="#fff" stroke-opacity="0.12" stroke-width="1.2" transform="translate(-1.6 -1.4)"/><path d="M214 918 C228.3 923.3 269 942.7 300 950 C331 957.3 366.7 962 400 962 C433.3 962 469 957.3 500 950 C531 942.7 571.7 923.3 586 918" fill="none" stroke="#000" stroke-opacity=".32" stroke-width="1.7" stroke-dasharray="6 3.4" stroke-linecap="round" transform="translate(.8 1)"/><path d="M214 918 C228.3 923.3 269 942.7 300 950 C331 957.3 366.7 962 400 962 C433.3 962 469 957.3 500 950 C531 942.7 571.7 923.3 586 918" fill="none" stroke="#d9937a" stroke-width="1.7" stroke-dasharray="6 3.4" stroke-linecap="round"/><path d="M386 214 L386 970" fill="none" stroke="#3a1006" stroke-opacity="0.13" stroke-width="6"/><path d="M386 214 L386 970" fill="none" stroke="#3a1006" stroke-opacity="0.34" stroke-width="1.8"/><path d="M386 214 L386 970" fill="none" stroke="#fff" stroke-opacity="0.20" stroke-width="1.2" transform="translate(-1.6 -1.4)"/><path d="M414 214 L414 970" fill="none" stroke="#3a1006" stroke-opacity="0.13" stroke-width="6"/><path d="M414 214 L414 970" fill="none" stroke="#3a1006" stroke-opacity="0.34" stroke-width="1.8"/><path d="M414 214 L414 970" fill="none" stroke="#fff" stroke-opacity="0.20" stroke-width="1.2" transform="translate(-1.6 -1.4)"/><path d="M390 222 L390 962" fill="none" stroke="#000" stroke-opacity=".32" stroke-width="1.7" stroke-dasharray="6 3.4" stroke-linecap="round" transform="translate(.8 1)"/><path d="M390 222 L390 962" fill="none" stroke="#d9937a" stroke-width="1.7" stroke-dasharray="6 3.4" stroke-linecap="round"/><path d="M410 222 L410 962" fill="none" stroke="#000" stroke-opacity=".32" stroke-width="1.7" stroke-dasharray="6 3.4" stroke-linecap="round" transform="translate(.8 1)"/><path d="M410 222 L410 962" fill="none" stroke="#d9937a" stroke-width="1.7" stroke-dasharray="6 3.4" stroke-linecap="round"/><circle cx="401.2" cy="268" r="8.5" fill="#2a1708" fill-opacity=".35"/><circle cx="400" cy="266" r="8.5" fill="url(#nacar)"/><circle cx="400" cy="266" r="6.1" fill="none" stroke="#b9ab92" stroke-opacity=".7" stroke-width="1"/><circle cx="397.4" cy="263.4" r="1.3" fill="#7d6e58"/><circle cx="402.6" cy="263.4" r="1.3" fill="#7d6e58"/><circle cx="397.4" cy="268.6" r="1.3" fill="#7d6e58"/><circle cx="402.6" cy="268.6" r="1.3" fill="#7d6e58"/><path d="M397.4 263.4L402.6 268.6M402.6 263.4L397.4 268.6" stroke="#e9dcc8" stroke-width="1.1"/><circle cx="401.2" cy="352" r="8.5" fill="#2a1708" fill-opacity=".35"/><circle cx="400" cy="350" r="8.5" fill="url(#nacar)"/><circle cx="400" cy="350" r="6.1" fill="none" stroke="#b9ab92" stroke-opacity=".7" stroke-width="1"/><circle cx="397.4" cy="347.4" r="1.3" fill="#7d6e58"/><circle cx="402.6" cy="347.4" r="1.3" fill="#7d6e58"/><circle cx="397.4" cy="352.6" r="1.3" fill="#7d6e58"/><circle cx="402.6" cy="352.6" r="1.3" fill="#7d6e58"/><path d="M397.4 347.4L402.6 352.6M402.6 347.4L397.4 352.6" stroke="#e9dcc8" stroke-width="1.1"/><circle cx="401.2" cy="436" r="8.5" fill="#2a1708" fill-opacity=".35"/><circle cx="400" cy="434" r="8.5" fill="url(#nacar)"/><circle cx="400" cy="434" r="6.1" fill="none" stroke="#b9ab92" stroke-opacity=".7" stroke-width="1"/><circle cx="397.4" cy="431.4" r="1.3" fill="#7d6e58"/><circle cx="402.6" cy="431.4" r="1.3" fill="#7d6e58"/><circle cx="397.4" cy="436.6" r="1.3" fill="#7d6e58"/><circle cx="402.6" cy="436.6" r="1.3" fill="#7d6e58"/><path d="M397.4 431.4L402.6 436.6M402.6 431.4L397.4 436.6" stroke="#e9dcc8" stroke-width="1.1"/><circle cx="401.2" cy="520" r="8.5" fill="#2a1708" fill-opacity=".35"/><circle cx="400" cy="518" r="8.5" fill="url(#nacar)"/><circle cx="400" cy="518" r="6.1" fill="none" stroke="#b9ab92" stroke-opacity=".7" stroke-width="1"/><circle cx="397.4" cy="515.4" r="1.3" fill="#7d6e58"/><circle cx="402.6" cy="515.4" r="1.3" fill="#7d6e58"/><circle cx="397.4" cy="520.6" r="1.3" fill="#7d6e58"/><circle cx="402.6" cy="520.6" r="1.3" fill="#7d6e58"/><path d="M397.4 515.4L402.6 520.6M402.6 515.4L397.4 520.6" stroke="#e9dcc8" stroke-width="1.1"/><circle cx="401.2" cy="604" r="8.5" fill="#2a1708" fill-opacity=".35"/><circle cx="400" cy="602" r="8.5" fill="url(#nacar)"/><circle cx="400" cy="602" r="6.1" fill="none" stroke="#b9ab92" stroke-opacity=".7" stroke-width="1"/><circle cx="397.4" cy="599.4" r="1.3" fill="#7d6e58"/><circle cx="402.6" cy="599.4" r="1.3" fill="#7d6e58"/><circle cx="397.4" cy="604.6" r="1.3" fill="#7d6e58"/><circle cx="402.6" cy="604.6" r="1.3" fill="#7d6e58"/><path d="M397.4 599.4L402.6 604.6M402.6 599.4L397.4 604.6" stroke="#e9dcc8" stroke-width="1.1"/><circle cx="401.2" cy="688" r="8.5" fill="#2a1708" fill-opacity=".35"/><circle cx="400" cy="686" r="8.5" fill="url(#nacar)"/><circle cx="400" cy="686" r="6.1" fill="none" stroke="#b9ab92" stroke-opacity=".7" stroke-width="1"/><circle cx="397.4" cy="683.4" r="1.3" fill="#7d6e58"/><circle cx="402.6" cy="683.4" r="1.3" fill="#7d6e58"/><circle cx="397.4" cy="688.6" r="1.3" fill="#7d6e58"/><circle cx="402.6" cy="688.6" r="1.3" fill="#7d6e58"/><path d="M397.4 683.4L402.6 688.6M402.6 683.4L397.4 688.6" stroke="#e9dcc8" stroke-width="1.1"/><circle cx="401.2" cy="772" r="8.5" fill="#2a1708" fill-opacity=".35"/><circle cx="400" cy="770" r="8.5" fill="url(#nacar)"/><circle cx="400" cy="770" r="6.1" fill="none" stroke="#b9ab92" stroke-opacity=".7" stroke-width="1"/><circle cx="397.4" cy="767.4" r="1.3" fill="#7d6e58"/><circle cx="402.6" cy="767.4" r="1.3" fill="#7d6e58"/><circle cx="397.4" cy="772.6" r="1.3" fill="#7d6e58"/><circle cx="402.6" cy="772.6" r="1.3" fill="#7d6e58"/><path d="M397.4 767.4L402.6 772.6M402.6 767.4L397.4 772.6" stroke="#e9dcc8" stroke-width="1.1"/><circle cx="401.2" cy="856" r="8.5" fill="#2a1708" fill-opacity=".35"/><circle cx="400" cy="854" r="8.5" fill="url(#nacar)"/><circle cx="400" cy="854" r="6.1" fill="none" stroke="#b9ab92" stroke-opacity=".7" stroke-width="1"/><circle cx="397.4" cy="851.4" r="1.3" fill="#7d6e58"/><circle cx="402.6" cy="851.4" r="1.3" fill="#7d6e58"/><circle cx="397.4" cy="856.6" r="1.3" fill="#7d6e58"/><circle cx="402.6" cy="856.6" r="1.3" fill="#7d6e58"/><path d="M397.4 851.4L402.6 856.6M402.6 851.4L397.4 856.6" stroke="#e9dcc8" stroke-width="1.1"/><path d="M282 338 H350 V410 L316 426 L282 410 Z" fill="none" stroke="#3a1006" stroke-opacity=".3" stroke-width="4" transform="translate(2 3)"/><path d="M282 338 H350 V410 L316 426 L282 410 Z" fill="#bd6c4e"/><path d="M282 338 H350 V410 L316 426 L282 410 Z" fill="url(#lino-trama)"/><path d="M282 352 L350 352" fill="none" stroke="#3a1006" stroke-opacity="0.09" stroke-width="6"/><path d="M282 352 L350 352" fill="none" stroke="#3a1006" stroke-opacity="0.24" stroke-width="1.8"/><path d="M282 352 L350 352" fill="none" stroke="#fff" stroke-opacity="0.14" stroke-width="1.2" transform="translate(-1.6 -1.4)"/><path d="M286 342 C286 353 281 394.8 286 408 C291 421.2 306 421 316 421 C326 421 341 421.2 346 408 C351 394.8 346 353 346 342" fill="none" stroke="#000" stroke-opacity=".32" stroke-width="1.7" stroke-dasharray="6 3.4" stroke-linecap="round" transform="translate(.8 1)"/><path d="M286 342 C286 353 281 394.8 286 408 C291 421.2 306 421 316 421 C326 421 341 421.2 346 408 C351 394.8 346 353 346 342" fill="none" stroke="#d9937a" stroke-width="1.7" stroke-dasharray="6 3.4" stroke-linecap="round"/><path d="M318 540 C317.5 558.3 315 611.7 315 650 C315 688.3 317.5 750 318 770" fill="none" stroke="#3a1006" stroke-opacity="0.14" stroke-width="6"/><path d="M318 540 C317.5 558.3 315 611.7 315 650 C315 688.3 317.5 750 318 770" fill="none" stroke="#3a1006" stroke-opacity="0.37" stroke-width="1.8"/><path d="M318 540 C317.5 558.3 315 611.7 315 650 C315 688.3 317.5 750 318 770" fill="none" stroke="#fff" stroke-opacity="0.22" stroke-width="1.2" transform="translate(-1.6 -1.4)"/><path d="M322 548 C321.5 565 319 614.7 319 650 C319 685.3 321.5 741.7 322 760" fill="none" stroke="#000" stroke-opacity=".32" stroke-width="1.7" stroke-dasharray="4 3" stroke-linecap="round" transform="translate(.8 1)"/><path d="M322 548 C321.5 565 319 614.7 319 650 C319 685.3 321.5 741.7 322 760" fill="none" stroke="#d9937a" stroke-width="1.7" stroke-dasharray="4 3" stroke-linecap="round"/><path d="M482 540 C481.5 558.3 479 611.7 479 650 C479 688.3 481.5 750 482 770" fill="none" stroke="#3a1006" stroke-opacity="0.14" stroke-width="6"/><path d="M482 540 C481.5 558.3 479 611.7 479 650 C479 688.3 481.5 750 482 770" fill="none" stroke="#3a1006" stroke-opacity="0.37" stroke-width="1.8"/><path d="M482 540 C481.5 558.3 479 611.7 479 650 C479 688.3 481.5 750 482 770" fill="none" stroke="#fff" stroke-opacity="0.22" stroke-width="1.2" transform="translate(-1.6 -1.4)"/><path d="M486 548 C485.5 565 483 614.7 483 650 C483 685.3 485.5 741.7 486 760" fill="none" stroke="#000" stroke-opacity=".32" stroke-width="1.7" stroke-dasharray="4 3" stroke-linecap="round" transform="translate(.8 1)"/><path d="M486 548 C485.5 565 483 614.7 483 650 C483 685.3 485.5 741.7 486 760" fill="none" stroke="#d9937a" stroke-width="1.7" stroke-dasharray="4 3" stroke-linecap="round"/><path d="M330 150 Q400 128 470 150 L460 166 Q400 148 340 166 Z" fill="#a85c40"/><path d="M400 178 C392.7 165.3 357.7 152.3 344 150 C330.3 147.7 320.3 153.3 318 164 C315.7 174.7 324 197.7 330 214 C336 230.3 344.3 260 354 262 C363.7 264 380.3 240 388 226 C395.7 212 407.3 190.7 400 178 Z" fill="#c27153"/><path d="M400 178 C392.7 165.3 357.7 152.3 344 150 C330.3 147.7 320.3 153.3 318 164 C315.7 174.7 324 197.7 330 214 C336 230.3 344.3 260 354 262 C363.7 264 380.3 240 388 226 C395.7 212 407.3 190.7 400 178 Z" fill="url(#lino-trama)"/><path d="M400 178 C392.7 165.3 357.7 152.3 344 150 C330.3 147.7 320.3 153.3 318 164 C315.7 174.7 324 197.7 330 214 C336 230.3 344.3 260 354 262 C363.7 264 380.3 240 388 226 C395.7 212 407.3 190.7 400 178 Z" fill="none" stroke="#3a1006" stroke-opacity=".45" stroke-width="1.6"/><path d="M400 180.6 C393.4 169.5 361.9 158.1 349.6 156 C337.3 153.9 328.3 158.9 326.2 168.3 C324.1 177.7 331.6 197.9 337 212.3 C342.4 226.7 349.9 252.8 358.6 254.6 C367.3 256.3 382.3 235.2 389.2 222.9 C396.1 210.6 406.6 191.8 400 180.6 Z" fill="none" stroke="#d9937a" stroke-width="1.4" stroke-dasharray="4 3"/><path d="M400 178 C407.3 165.3 442.3 152.3 456 150 C469.7 147.7 479.7 153.3 482 164 C484.3 174.7 476 197.7 470 214 C464 230.3 455.7 260 446 262 C436.3 264 419.7 240 412 226 C404.3 212 392.7 190.7 400 178 Z" fill="#c27153"/><path d="M400 178 C407.3 165.3 442.3 152.3 456 150 C469.7 147.7 479.7 153.3 482 164 C484.3 174.7 476 197.7 470 214 C464 230.3 455.7 260 446 262 C436.3 264 419.7 240 412 226 C404.3 212 392.7 190.7 400 178 Z" fill="url(#lino-trama)"/><path d="M400 178 C407.3 165.3 442.3 152.3 456 150 C469.7 147.7 479.7 153.3 482 164 C484.3 174.7 476 197.7 470 214 C464 230.3 455.7 260 446 262 C436.3 264 419.7 240 412 226 C404.3 212 392.7 190.7 400 178 Z" fill="none" stroke="#3a1006" stroke-opacity=".45" stroke-width="1.6"/><path d="M400 180.6 C406.6 169.5 438.1 158.1 450.4 156 C462.7 153.9 471.7 158.9 473.8 168.3 C475.9 177.7 468.4 197.9 463 212.3 C457.6 226.7 450.1 252.8 441.4 254.6 C432.7 256.3 417.7 235.2 410.8 222.9 C403.9 210.6 393.4 191.8 400 180.6 Z" fill="none" stroke="#d9937a" stroke-width="1.4" stroke-dasharray="4 3"/></g></g><g filter="url(#sombra-chica)"><g transform="translate(90 150)">
  <circle r="52" fill="url(#tomate)"/><path d="M0 0 Q28.8 8.3 50 0" fill="none" stroke="#5e1d12" stroke-opacity=".45" stroke-width="2.2"/><path d="M0 0 Q14.5 26.2 35.4 35.4" fill="none" stroke="#5e1d12" stroke-opacity=".45" stroke-width="2.2"/><path d="M0 0 Q-8.3 28.8 0 50" fill="none" stroke="#5e1d12" stroke-opacity=".45" stroke-width="2.2"/><path d="M0 0 Q-26.2 14.5 -35.4 35.4" fill="none" stroke="#5e1d12" stroke-opacity=".45" stroke-width="2.2"/><path d="M0 0 Q-28.8 -8.3 -50 0" fill="none" stroke="#5e1d12" stroke-opacity=".45" stroke-width="2.2"/><path d="M0 0 Q-14.5 -26.2 -35.4 -35.4" fill="none" stroke="#5e1d12" stroke-opacity=".45" stroke-width="2.2"/><path d="M0 0 Q8.3 -28.8 -0 -50" fill="none" stroke="#5e1d12" stroke-opacity=".45" stroke-width="2.2"/><path d="M0 0 Q26.2 -14.5 35.4 -35.4" fill="none" stroke="#5e1d12" stroke-opacity=".45" stroke-width="2.2"/>
  <path d="M0 -13 L5 -5 L14 -4 L7 2 L9 12 L0 6 L-9 12 L-7 2 L-14 -4 L-5 -5 Z" fill="#4f6f33"/>
  <path d="M0 -13 L5 -5 L14 -4 L7 2 L9 12 L0 6 Z" fill="#6c8f45" opacity=".7"/>
  <circle cx="15" cy="-26" r="6.5" fill="url(#bola-mostaza)"/><circle cx="33.8" cy="12.3" r="6.5" fill="url(#bola-azul)"/><circle cx="-9.6" cy="26.3" r="6.5" fill="url(#bola-crudo)"/><circle cx="-31.9" cy="-11.6" r="6.5" fill="url(#bola-mostaza)"/><circle cx="-37.6" cy="13.7" r="6.5" fill="url(#bola-azul)"/>
  <line x1="-38" y1="-52" x2="-17" y2="-15.6" stroke="#8b9198" stroke-width="2.2" stroke-linecap="round"/><line x1="-38" y1="-52.7" x2="-17" y2="-16.3" stroke="#f3f5f7" stroke-width=".7"/><circle cx="-38" cy="-52" r="7.5" fill="url(#bola-rojo)"/>
</g><g transform="translate(712 150) rotate(-20)">
  <rect x="0" y="42" width="120" height="16" fill="url(#cinta-amarilla)"/>
  <path d="M10 42v6M20 42v4M30 42v6M40 42v4M50 42v6M60 42v4M70 42v6M80 42v4M90 42v6M100 42v4M110 42v6" stroke="#2b2014"/>
  <circle r="58" fill="url(#cinta-radial)"/><circle r="22" fill="none" stroke="#6b5014" stroke-opacity=".28"/><circle r="26" fill="none" stroke="#6b5014" stroke-opacity=".28"/><circle r="30" fill="none" stroke="#6b5014" stroke-opacity=".28"/><circle r="34" fill="none" stroke="#6b5014" stroke-opacity=".28"/><circle r="38" fill="none" stroke="#6b5014" stroke-opacity=".28"/><circle r="42" fill="none" stroke="#6b5014" stroke-opacity=".28"/><circle r="46" fill="none" stroke="#6b5014" stroke-opacity=".28"/><circle r="50" fill="none" stroke="#6b5014" stroke-opacity=".28"/><circle r="54" fill="none" stroke="#6b5014" stroke-opacity=".28"/>
  <circle r="19" fill="#6d4a2a"/><circle r="19" fill="url(#cilindro)" opacity=".5"/>
</g></g>
<rect width="800" height="1000" fill="url(#luz)"/><rect width="800" height="1000" fill="url(#vineta)"/><rect width="800" height="1000" filter="url(#grano)"/>
</svg>
